<svg xmlns="http://www.w3.org/2000/svg" xmlns:xlink="http://www.w3.org/1999/xlink" width="558.73" height="386.214" viewBox="0 0 558.73 386.214">
  <defs>
    <clipPath id="clip-path">
      <rect width="555.898" height="377.838" fill="none"/>
    </clipPath>
  </defs>
  <g id="Frame" transform="translate(0.006)">
    <rect id="Rectangle_4" data-name="Rectangle 4" width="555.898" height="386.191" rx="3" transform="translate(0 0)" fill="#c49966"/>
    <path id="Path_27" data-name="Path 27" d="M2054,1306.313s219.432-2.743,265.725,0,177.281-.314,213.194,0,76.073,0,76.073,0" transform="translate(-2054 -1267.764)" fill="none" stroke="#000" stroke-width="1" opacity="0.295"/>
    <path id="Path_28" data-name="Path 28" d="M2054,1306.313s219.432-2.743,265.725,0,177.281-.314,213.194,0,76.073,0,76.073,0" transform="translate(-2054 -1226.639)" fill="none" stroke="#000" stroke-width="1" opacity="0.295"/>
    <path id="Path_29" data-name="Path 29" d="M2054,1306.313s219.432-2.743,265.725,0,177.281-.314,213.194,0,76.073,0,76.073,0" transform="translate(-2054 -1185.514)" fill="none" stroke="#000" stroke-width="1" opacity="0.295"/>
    <path id="Path_30" data-name="Path 30" d="M2054,1306.313s219.432-2.743,265.725,0,177.281-.314,213.194,0,76.073,0,76.073,0" transform="translate(-2054 -1144.388)" fill="none" stroke="#000" stroke-width="1" opacity="0.295"/>
    <path id="Path_31" data-name="Path 31" d="M2054,1306.313s219.432-2.743,265.725,0,177.281-.314,213.194,0,76.073,0,76.073,0" transform="translate(-2054 -1103.263)" fill="none" stroke="#000" stroke-width="1" opacity="0.295"/>
    <path id="Path_32" data-name="Path 32" d="M2054,1306.313s219.432-2.743,265.725,0,177.281-.314,213.194,0,76.073,0,76.073,0" transform="translate(-2054 -1062.138)" fill="none" stroke="#000" stroke-width="1" opacity="0.295"/>
    <path id="Path_33" data-name="Path 33" d="M2054,1306.313s219.432-2.743,265.725,0,177.281-.314,213.194,0,76.073,0,76.073,0" transform="translate(-2054 -1021.013)" fill="none" stroke="#000" stroke-width="1" opacity="0.295"/>
    <path id="Path_34" data-name="Path 34" d="M2054,1306.313s219.432-2.743,265.725,0,177.281-.314,213.194,0,76.073,0,76.073,0" transform="translate(-2054 -979.888)" fill="none" stroke="#000" stroke-width="1" opacity="0.295"/>
    <path id="Path_35" data-name="Path 35" d="M2054,1306.313s219.432-2.743,265.725,0,177.281-.314,213.194,0,76.073,0,76.073,0" transform="translate(-2054 -938.763)" fill="none" stroke="#000" stroke-width="1" opacity="0.295"/>
    <g id="Repeat_Grid_1" data-name="Repeat Grid 1" transform="translate(0.321 7.711)" opacity="0.069" clip-path="url(#clip-path)">
      <g transform="translate(-544.5 -102)">
        <line id="Line_9" data-name="Line 9" x2="828" transform="translate(544.5 102.5)" fill="none" stroke="#000" stroke-width="1"/>
      </g>
      <g transform="translate(-544.5 -76)">
        <line id="Line_9-2" data-name="Line 9" x2="828" transform="translate(544.5 102.5)" fill="none" stroke="#000" stroke-width="1"/>
      </g>
      <g transform="translate(-544.5 -50)">
        <line id="Line_9-3" data-name="Line 9" x2="828" transform="translate(544.5 102.5)" fill="none" stroke="#000" stroke-width="1"/>
      </g>
      <g transform="translate(-544.5 -24)">
        <line id="Line_9-4" data-name="Line 9" x2="828" transform="translate(544.5 102.5)" fill="none" stroke="#000" stroke-width="1"/>
      </g>
      <g transform="translate(-544.5 2)">
        <line id="Line_9-5" data-name="Line 9" x2="828" transform="translate(544.5 102.5)" fill="none" stroke="#000" stroke-width="1"/>
      </g>
      <g transform="translate(-544.5 28)">
        <line id="Line_9-6" data-name="Line 9" x2="828" transform="translate(544.5 102.5)" fill="none" stroke="#000" stroke-width="1"/>
      </g>
      <g transform="translate(-544.5 54)">
        <line id="Line_9-7" data-name="Line 9" x2="828" transform="translate(544.5 102.5)" fill="none" stroke="#000" stroke-width="1"/>
      </g>
      <g transform="translate(-544.5 80)">
        <line id="Line_9-8" data-name="Line 9" x2="828" transform="translate(544.5 102.5)" fill="none" stroke="#000" stroke-width="1"/>
      </g>
      <g transform="translate(-544.5 106)">
        <line id="Line_9-9" data-name="Line 9" x2="828" transform="translate(544.5 102.5)" fill="none" stroke="#000" stroke-width="1"/>
      </g>
      <g transform="translate(-544.5 132)">
        <line id="Line_9-10" data-name="Line 9" x2="828" transform="translate(544.5 102.5)" fill="none" stroke="#000" stroke-width="1"/>
      </g>
      <g transform="translate(-544.5 158)">
        <line id="Line_9-11" data-name="Line 9" x2="828" transform="translate(544.5 102.5)" fill="none" stroke="#000" stroke-width="1"/>
      </g>
      <g transform="translate(-544.5 184)">
        <line id="Line_9-12" data-name="Line 9" x2="828" transform="translate(544.5 102.5)" fill="none" stroke="#000" stroke-width="1"/>
      </g>
      <g transform="translate(-544.5 210)">
        <line id="Line_9-13" data-name="Line 9" x2="828" transform="translate(544.5 102.5)" fill="none" stroke="#000" stroke-width="1"/>
      </g>
      <g transform="translate(-544.5 236)">
        <line id="Line_9-14" data-name="Line 9" x2="828" transform="translate(544.5 102.5)" fill="none" stroke="#000" stroke-width="1"/>
      </g>
      <g transform="translate(-544.5 262)">
        <line id="Line_9-15" data-name="Line 9" x2="828" transform="translate(544.5 102.5)" fill="none" stroke="#000" stroke-width="1"/>
      </g>
    </g>
    <path id="Path_36" data-name="Path 36" d="M2882,1250.909l2.826,4.047v29.329l-2.826,3.2Z" transform="translate(-2326.102 -1248.397)" fill="#a8815b"/>
    <path id="Path_37" data-name="Path 37" d="M2882,1250.909l2.826,4.481v32.473l-2.826,3.547Z" transform="translate(-2326.102 -1211.77)" fill="#a8815b"/>
    <path id="Path_38" data-name="Path 38" d="M2882,1250.909l2.826,4.576v33.158l-2.826,3.622Z" transform="translate(-2326.102 -1171.287)" fill="#a8815b"/>
    <path id="Path_39" data-name="Path 39" d="M2882,1250.909l2.826,4.576v33.158l-2.826,3.622Z" transform="translate(-2326.102 -1130.162)" fill="#a8815b"/>
    <path id="Path_40" data-name="Path 40" d="M2882,1250.909l2.826,4.576v33.158l-2.826,3.622Z" transform="translate(-2326.102 -1089.037)" fill="#a8815b"/>
    <path id="Path_41" data-name="Path 41" d="M2882,1250.909l2.826,4.576v33.158l-2.826,3.622Z" transform="translate(-2326.102 -1047.912)" fill="#a8815b"/>
    <path id="Path_42" data-name="Path 42" d="M2882,1250.909l2.826,4.576v33.158l-2.826,3.622Z" transform="translate(-2326.102 -1006.787)" fill="#a8815b"/>
    <path id="Path_43" data-name="Path 43" d="M2882,1250.909l2.826,4.576v33.158l-2.826,3.622Z" transform="translate(-2326.102 -965.662)" fill="#a8815b"/>
    <path id="Path_44" data-name="Path 44" d="M2882,1250.909l2.826,4.576v33.158l-2.826,3.622Z" transform="translate(-2326.102 -925.822)" fill="#a8815b"/>
    <path id="Path_47" data-name="Path 47" d="M0,0H0L61.393,5.441l-56.94.018C1.686,5.459.017,4.925.017,3.832Z" transform="translate(0 380.756)" fill="#a8815b"/>
    <path id="Path_48" data-name="Path 48" d="M69.028,0h0L0,5.441l64.02.018c3.112,0,4.989-.533,4.989-1.626Z" transform="translate(486.87 380.756)" fill="#a8815b"/>
    <path id="Path_49" data-name="Path 49" d="M2054,1306.547v5.422s158.209-3.3,225.5,0,330.506,0,330.506,0v-5.422Z" transform="translate(-2054 -1268.283)" opacity="0.054"/>
    <path id="Path_50" data-name="Path 50" d="M2054,1306.547v4.765s158.209-2.9,225.5,0,330.506,0,330.506,0v-4.765Z" transform="translate(-2054 -1186.033)" opacity="0.054"/>
    <path id="Path_51" data-name="Path 51" d="M2054,1306.547v4.44s158.209-2.705,225.5,0,330.506,0,330.506,0v-4.44Z" transform="translate(-2054 -1103.782)" opacity="0.054"/>
    <path id="Path_55" data-name="Path 55" d="M2054,1306.547v3.932s158.209-2.4,225.5,0,330.506,0,330.506,0v-3.932Z" transform="translate(-2054 -1062.657)" opacity="0.054"/>
    <path id="Path_56" data-name="Path 56" d="M2054,1306.547v3s158.209-1.829,225.5,0,330.506,0,330.506,0v-3Z" transform="translate(-2054 -979.764)" opacity="0.054"/>
    <path id="Path_52" data-name="Path 52" d="M2054,1306.547v4.429s158.209-2.7,225.5,0,330.506,0,330.506,0v-4.429Z" transform="translate(-2054 -1021.532)" opacity="0.054"/>
    <path id="Path_53" data-name="Path 53" d="M2054,1306.547v3.956s158.209-2.411,225.5,0,330.506,0,330.506,0v-3.956Z" transform="translate(-2054 -1144.908)" opacity="0.054"/>
    <path id="Path_54" data-name="Path 54" d="M2054,1306.547v4.57s158.209-2.785,225.5,0,330.506,0,330.506,0v-4.57Z" transform="translate(-2054 -1227.801)" opacity="0.054"/>
  </g>
</svg>
